<svg id="Layer_2" data-name="Layer 2" xmlns="http://www.w3.org/2000/svg" viewBox="0 0 391.64 397.5"><defs><style>.cls-1{fill:#ba442f;stroke:#bb432f;}.cls-1,.cls-2,.cls-3,.cls-6,.cls-9{stroke-miterlimit:10;}.cls-1,.cls-9{stroke-width:0.5px;}.cls-2,.cls-7{fill:#bcbbbb;}.cls-2{stroke:#bcbbbb;}.cls-3{fill:#302f34;stroke:#2f2f33;}.cls-4{fill:#aeafac;}.cls-5{fill:#231f20;}.cls-6{fill:#545354;stroke:#545354;}.cls-8{fill:#fff;}.cls-9{fill:#e0563e;stroke:#e2583e;}.cls-10{fill:#949494;}</style></defs><path d="M1641.74,1344.13h0l0-.14a2.47,2.47,0,0,0-1-1.44l0,0a2.75,2.75,0,0,0-.38-.2l-.09,0a2.3,2.3,0,0,0-.35-.1l-.14,0a1.46,1.46,0,0,0-.29,0h-.3c-3.11.28-9.14.64-15.84,1,9.21-17.15,9.82-45.11,8.59-53.88,54-46.61,61.58-125.34,56.86-162.29-1.41-11-4.1-18.46-9.81-22-6.65-4.1-13.88-1.17-14.15-1.06-5,2-39.3,15.91-46.46,19-6.21,2.7-15.47,5.81-26.19,9.41-7,2.34-14.85,5-22.64,7.78-1.07.36-2.17.77-3.29,1.23-1.46-11.82-6.91-38.36-13.47-59.51l-.11-.3c-7.9-17.29-11.35-22.41-15.41-22.83-3.25-.34-5.33,2.46-7.73,5.71-.34.46-.69.94-1.11,1.49-5.09,7.19-31.83,38.21-51.12,46.38-17.48,7.4-31.27,27.62-35.13,33.76a1.55,1.55,0,0,0-.14.29,108,108,0,0,0-49,19.68c-22.85,16.8-36.2,38.84-43.39,54.38-8.35,18.07-12.74,37.28-11.48,50.22v.18c.59,43.45-8.29,47.35-17.7,51.49-1.23.53-2.5,1.09-3.7,1.7-8.92,4.22-14.68,10.48-17.12,18.61-4.12,13.71,2.41,28.65,5.34,34.32l.16.24,0,.06c1.92,4.23,6.92,14.68,13.81,23.25,9.49,11.79,19.82,17.81,30.35,17.81a29.27,29.27,0,0,0,10.08-1.84,40,40,0,0,1,4.11-1.18,14.77,14.77,0,0,0-1.82,3.16c-1.42,3.54-1.93,9.2,3.73,16.08l.15.17a20.91,20.91,0,0,0,14.68,6.37,20.36,20.36,0,0,0,3-.22,11.63,11.63,0,0,0,2.23,3c4.64,4.59,13.47,6.89,26.35,6.89a160.08,160.08,0,0,0,19.14-1.31c1.5-.17,24.67,6.75,44.5,6.75a122,122,0,0,0,19.38-1.49c53.46-10.69,90.91-26.39,100.33-36.44,5.57-6.35,4.73-10.41,3-12.7a8.2,8.2,0,0,0-3.35-2.54c7.85-3.84,16.9-9.27,22.44-15.41a2.49,2.49,0,0,0-.35-3.64,2.88,2.88,0,0,0-.5-.3,2.54,2.54,0,0,0-1.07-.41l-7.14-1.12c13.75-6.59,24.17-15.61,24.15-23.51,0-2.39,5.47-8.62,8.85-12.31l.11-.15.09-.11a1.92,1.92,0,0,0,.18-.31l.06-.13a2.19,2.19,0,0,0,.12-.33l0-.15a2,2,0,0,0,0-.35v-.15a2.17,2.17,0,0,0,0-.44Zm-162.59-227.24c22-9.3,50-43.54,53.2-48,.39-.5.75-1,1.1-1.47s.84-1.14,1.28-1.71a2.5,2.5,0,0,1,4,.08c2.06,2.9,5.11,8.77,9.13,17.55a2.56,2.56,0,0,1,.12.32c6.8,22,12.36,49.62,13.37,59.86-9.33,4.54-19.61,11.39-27.26,16.87-19.4-8.06-45.46-15.42-72.44-15.42q-6.62,0-13.26.62C1453.72,1137.81,1465.41,1122.71,1479.15,1116.89ZM1304.73,1340a19.82,19.82,0,0,1,10.12-10.58,2.42,2.42,0,0,1,3.24,1.44l.05.14a2.39,2.39,0,0,1-1.24,3,15.4,15.4,0,0,0-7.52,8,2.44,2.44,0,0,1-2.72,1.42l-.2,0A2.4,2.4,0,0,1,1304.73,1340Zm81.51,94.89c-.25.1-.5.19-.76.27a14.67,14.67,0,0,1-2.22.55c-.51.09-1,.15-1.48.19-.23,0-.46,0-.67,0h0l-.88,0h-.74l-.6,0a15.88,15.88,0,0,1-9.63-4.6l-.18-.2c-3.18-3.94-4.09-7.58-2.81-10.86,1.78-4.59,7.07-6.87,9.1-7.4,3.84-.67,8-1.35,12.26-2l.62-.1,1.18-.18.65-.1,1.82-.29,2.16-.33.86-.13,1.27-.2,1.91-.29.14,0,1.72-.27,2.28-.35c7.47-1.17,13.44-2.14,18-3l-.05.08c-.06.1-.16.25-.29.43l-.48.65c-.12.17-.27.36-.42.56s-.52.65-.82,1c-1.09,1.34-2.59,3.1-4.49,5.11-.54.58-1.11,1.18-1.71,1.79a118.54,118.54,0,0,1-15.46,13.28c-.45.32-.91.65-1.38,1-.25.17-.5.35-.76.51l-.63.43a.1.1,0,0,0,0,0l-.2.14h0l-.07,0-.33.23-.34.21q-.32.23-.63.42l-.6.39-2.31,1.43a11.47,11.47,0,0,1-2.29,1.33C1386.63,1434.76,1386.44,1434.85,1386.24,1434.92Zm44.33,9.49-.61.08c-28.07,3.41-37.65-1-40.86-4a6.83,6.83,0,0,1-.95-1l.63-.25c1.08-.44,7-3.62,14.56-9.61a119.13,119.13,0,0,0,24.77-26.41,2.59,2.59,0,0,0,.41-1.09v-.15a1.82,1.82,0,0,0,0-.33l0-.24-.06-.26-.08-.26a1.55,1.55,0,0,0-.14-.29l-.08-.16,0-.07a2.47,2.47,0,0,0-2.76-1c-5,1.45-18.65,3.55-29.94,5.29-15.61,2.4-31.75,4.89-37.81,7.14-25.21,9.19-43.73-27.38-48-36.6a2.22,2.22,0,0,0-.25-.42l0-.1a60.42,60.42,0,0,1-5.24-14.61c26.39-4.71,27.15-17.69,24.51-26.15a72.59,72.59,0,0,0,19.31-10.48c12.36-9.27,28.69-27.41,36.26-61.18,7.09-25.83,25.6-43.16,50.8-47.55,27.13-4.72,54.53,5.07,71.76,27.15,6.88,10.19,22.12,46.14,42.74,63.48-9.5.25-36.23-3.11-49.19-26.37a2.68,2.68,0,0,0-.67-.82l-.05,0a2.46,2.46,0,0,0-.34-.22l-.15-.06a2.36,2.36,0,0,0-.28-.12l-.3-.06-.18,0a2.37,2.37,0,0,0-.46,0h0l-.24,0-.2,0a2.5,2.5,0,0,0-1.82,2.16v.19c0,.11,0,.23,0,.34h0c1,7.85,4.86,34.36,14.71,44.29,7,7.21,12.47,22,14.91,31.39-23.19-8.37-34.26-38.23-36.54-46.24a2.43,2.43,0,0,0-1.09-1.44,2.54,2.54,0,0,0-1.44-.37,2.5,2.5,0,0,0-2.39,1.79c-1.19,4.17-4.06,15.2-3,26.1,1.22,12.12,9.27,29.82,27.32,44.75a51.18,51.18,0,0,1-12.85-2.32c-13-4.49-22.06-16.55-25.57-31.7a3.53,3.53,0,0,0-.15-.46l0,0a1.92,1.92,0,0,0-.18-.31l-.07-.12-.17-.19-.16-.16-.11-.09-.27-.2h0a2.44,2.44,0,0,0-.67-.28h0l-.3,0a2.17,2.17,0,0,0-.36,0,2.45,2.45,0,0,0-2.44,2.23c-.65,7.76-1.12,33.13,15.17,51a2.52,2.52,0,0,1,.64,1.76,27.57,27.57,0,0,0,9.72,21.75c.67.88-3.51,2.61-4.07,2.68a1.57,1.57,0,0,0-.29.08C1470.61,1425.9,1439.23,1440.5,1430.57,1444.41Zm179.53-56.91,0,0,0,0Zm17.18-28.88c0,5.64-10.85,15.48-29,22.29a2.5,2.5,0,0,0-1,.69l0,0a2.08,2.08,0,0,0-.24.34l0,.07a2.07,2.07,0,0,0-.15.34l0,.13c0,.11,0,.22-.07.33l0,.1v.07a2.44,2.44,0,0,0,0,.27v.25l0,.16a2,2,0,0,0,.09.35v0l0,0a2.57,2.57,0,0,0,.19.41l0,0a2.48,2.48,0,0,0,1.81,1.19L1607,1387c.94.2,2,.46,2.06.79,0,.06,0,.39-.86,1.21-9.56,7.41-23.53,13.27-28.31,14.69a2.49,2.49,0,0,0-1.72,3h0a2.49,2.49,0,0,0,3.13,1.81c1.06-.31,2.52-.81,4.24-1.48h0c2.85-1.14,6.85-2,8.48,1.49.58,1.25-.22,3.52-2.73,6.37-8.6,9.18-45.73,24.53-97.51,34.88-20.49,3.3-40.57.13-52.33-2.57l-.4-2c14.79-6.44,36.86-15.4,46.7-16.24l.15,0h0a8.74,8.74,0,0,0,7.17-9v0a2.51,2.51,0,0,0-1-1.72h0c-7.86-5.93-9-15.43-8.5-20.1v0a2.42,2.42,0,0,0-.69-2v0c-10-10.14-13.66-23.58-14.87-34.08,6.39,11.87,15.9,18.48,23.52,21.12,6.54,2.26,15.45,2.76,19.6,2.76,1,0,1.84,0,2.58-.07a2.45,2.45,0,0,0,2.31-2.81v-.08a2.46,2.46,0,0,0-1-1.66h0c-16.68-11.74-29.43-27.85-31.27-45.58a58.5,58.5,0,0,1,.79-15.71,85.54,85.54,0,0,0,6.19,14.07c8.38,14.64,21.41,24.7,34.86,28.06a2.37,2.37,0,0,0,.75,0,2.34,2.34,0,0,0,.59,0h0a2.47,2.47,0,0,0,2.07-2.93c-1.8-9.2-8.24-28.79-17.18-38-6.13-6.17-9.77-20.59-11.71-31.13,13.54,15,34.44,19.83,43.51,20.24a45.45,45.45,0,0,0,5.64-.09h0l.77-.07.19,0c5.21-.78,4.84-4.52,2.67-6.71l0,0-.31-.28v0c-20.09-15.62-35-51.59-42.9-62.9l-.12-.2c-.13-.17-.26-.32-.38-.49l-.19-.26-.19-.22c-18.33-23.63-47.71-34.22-76.69-29.18-27.2,4.74-47.17,23.4-54.77,51.21l0,.12c-7.21,32.16-22.56,49.38-34.17,58.16a67.74,67.74,0,0,1-18.46,10,35.1,35.1,0,0,0-1.83-3.1,3.68,3.68,0,0,0-.47-.15c9.83-4.51,19.3-11.49,18.68-55.44l0-.22c-2.39-23.34,15-72.47,52.84-100.27,34-25,84.8-25.61,133.45-6.21-2.08,1.54-3.78,2.84-5,3.76a2.51,2.51,0,0,0,1.54,4.49,2.47,2.47,0,0,0,1.51-.52c6.44-5,28.84-21.79,43.64-26.71,7.8-2.8,15.66-5.44,22.6-7.77,10.83-3.64,20.19-6.78,26.6-9.57,7.11-3.1,41.37-17,46.35-19,.05,0,5.22-2,9.64.69,4.21,2.59,6.78,8.85,7.44,18.11v.11c1.2,10.65,1.51,39.28-5.9,71.41-10.7,46.33-34.38,74-50.24,87.44a2.48,2.48,0,0,0-.79,2.55l-.07,0c1.14,3.36,1.51,37.8-9.46,54.52-7.11.34-14.22.63-18.83.77a2.49,2.49,0,0,0-2.42,2.56h0a2.49,2.49,0,0,0,2.57,2.42c6.36-.19,24-.93,34.78-1.61C1630.36,1351.14,1627.28,1355.53,1627.28,1358.62Z" transform="translate(-1298.23 -1058.68)"/><path class="cls-1" d="M1420.17,1405.6c-.08.1-.15.2-.23.29a.39.39,0,0,1-.08.1c-2,2.25-11.28,10.43-21,17.74l3.39-15.11C1409.69,1407.45,1415.66,1406.48,1420.17,1405.6Z" transform="translate(-1298.23 -1058.68)"/><path class="cls-1" d="M1396.85,1424.82l-9.24-13.94c-4.23.66-8.42,1.34-12.26,2-2,.53-7.32,2.81-9.1,7.4-1.28,3.28-.37,6.92,2.81,10.86l.18.2a15.88,15.88,0,0,0,9.63,4.6c4.48-1.45,11.33-5.86,18.19-10.9A.93.93,0,0,1,1396.85,1424.82Zm-12.53-.64a14.39,14.39,0,0,0-4.18,2,2.42,2.42,0,0,1-3-.14l-.06,0a2.46,2.46,0,0,1,.2-3.91,19.27,19.27,0,0,1,5.66-2.71,2.44,2.44,0,0,1,3,2l0,.1A2.45,2.45,0,0,1,1384.32,1424.18Z" transform="translate(-1298.23 -1058.68)"/><path class="cls-2" d="M1497.4,1277.66l.2,0,.24,0h0a2.37,2.37,0,0,1,.46,0l.18,0,.3.06a2.36,2.36,0,0,1,.28.12l.15.06a2.46,2.46,0,0,1,.34.22l.05,0a2.68,2.68,0,0,1,.67.82c13,23.26,39.69,26.62,49.19,26.37-20.62-17.34-35.86-53.29-42.74-63.48-17.23-22.08-44.63-31.87-71.76-27.15-25.2,4.39-43.71,21.72-50.8,47.55-7.57,33.77-23.9,51.91-36.26,61.18a72.59,72.59,0,0,1-19.31,10.48c2.64,8.46,1.88,21.44-24.51,26.15a60.42,60.42,0,0,0,5.24,14.61l0,.1a2.22,2.22,0,0,1,.25.42c4.23,9.22,22.75,45.79,48,36.6,6.06-2.25,22.2-4.74,37.81-7.14,11.29-1.74,24.95-3.84,29.94-5.29a2.47,2.47,0,0,1,2.76,1l0,.07.08.16a1.55,1.55,0,0,1,.14.29l.08.26.06.26,0,.24a1.82,1.82,0,0,1,0,.33v.15a2.59,2.59,0,0,1-.41,1.09,119.13,119.13,0,0,1-24.77,26.41c-7.58,6-13.48,9.17-14.56,9.61l-.63.25a6.83,6.83,0,0,0,.95,1c3.21,3,12.79,7.4,40.86,4l.61-.08c8.66-3.91,40-18.51,55.34-20.21a1.57,1.57,0,0,1,.29-.08c.56-.07,4.74-1.8,4.07-2.68a27.57,27.57,0,0,1-9.72-21.75,2.52,2.52,0,0,0-.64-1.76c-16.29-17.88-15.82-43.25-15.17-51a2.45,2.45,0,0,1,2.44-2.23,2.17,2.17,0,0,1,.36,0l.3,0h0a2.44,2.44,0,0,1,.67.28h0l.27.2.11.09.16.16.17.19.07.12a1.92,1.92,0,0,1,.18.31l0,0a3.53,3.53,0,0,1,.15.46c3.51,15.15,12.57,27.21,25.57,31.7a51.18,51.18,0,0,0,12.85,2.32c-18-14.93-26.1-32.63-27.32-44.75-1.09-10.9,1.78-21.93,3-26.1a2.5,2.5,0,0,1,2.39-1.79,2.54,2.54,0,0,1,1.44.37,2.43,2.43,0,0,1,1.09,1.44c2.28,8,13.35,37.87,36.54,46.24-2.44-9.42-7.9-24.18-14.91-31.39-9.85-9.93-13.75-36.44-14.71-44.29h0c0-.11,0-.23,0-.34v-.19A2.5,2.5,0,0,1,1497.4,1277.66Zm-106-2.11a4.45,4.45,0,0,1,2.12-5.92l50.14-23.67a4.45,4.45,0,0,1,3.8,8l-50.14,23.68A4.44,4.44,0,0,1,1391.45,1275.55Zm34.71,52.61a27,27,0,1,1,27-27A27,27,0,0,1,1426.16,1328.16Z" transform="translate(-1298.23 -1058.68)"/><path class="cls-3" d="M1561.37,1143.49c-9.33,4.54-19.61,11.39-27.26,16.87-19.4-8.06-45.46-15.42-72.44-15.42q-6.62,0-13.26.62c5.31-7.75,17-22.85,30.74-28.67,22-9.3,50-43.54,53.2-48,.39-.5.75-1,1.1-1.47s.84-1.14,1.28-1.71a2.5,2.5,0,0,1,4,.08c2.06,2.9,5.11,8.77,9.13,17.55a2.56,2.56,0,0,1,.12.32C1554.8,1105.62,1560.36,1133.25,1561.37,1143.49Z" transform="translate(-1298.23 -1058.68)"/><path class="cls-3" d="M1683.71,1127.44v-.11c-.66-9.26-3.23-15.52-7.44-18.11-4.42-2.73-9.59-.71-9.64-.69-5,2-39.24,15.88-46.35,19-6.41,2.79-15.77,5.93-26.6,9.57-6.94,2.33-14.8,5-22.6,7.77-14.8,4.92-37.2,21.75-43.64,26.71a2.47,2.47,0,0,1-1.51.52,2.51,2.51,0,0,1-1.54-4.49c1.19-.92,2.89-2.22,5-3.76-48.65-19.4-99.47-18.77-133.45,6.21-37.79,27.8-55.23,76.93-52.84,100.27l0,.22c.62,44-8.85,50.93-18.68,55.44a3.68,3.68,0,0,1,.47.15,35.1,35.1,0,0,1,1.83,3.1,67.74,67.74,0,0,0,18.46-10c11.61-8.78,27-26,34.17-58.16l0-.12c7.6-27.81,27.57-46.47,54.77-51.21,29-5,58.36,5.55,76.69,29.18l.19.22.19.26c.12.17.25.32.38.49l.12.2c7.91,11.31,22.81,47.28,42.9,62.9v0l.31.28,0,0c2.17,2.19,2.54,5.93-2.67,6.71l-.19,0-.77.07h0a45.45,45.45,0,0,1-5.64.09c-9.07-.41-30-5.21-43.51-20.24,1.94,10.54,5.58,25,11.71,31.13,8.94,9.2,15.38,28.79,17.18,38a2.47,2.47,0,0,1-2.07,2.93h0a2.34,2.34,0,0,1-.59,0,2.37,2.37,0,0,1-.75,0c-13.45-3.36-26.48-13.42-34.86-28.06a85.54,85.54,0,0,1-6.19-14.07,58.5,58.5,0,0,0-.79,15.71c1.84,17.73,14.59,33.84,31.27,45.58h0a2.46,2.46,0,0,1,1,1.66v.08a2.45,2.45,0,0,1-2.31,2.81c-.74,0-1.6.07-2.58.07-4.15,0-13.06-.5-19.6-2.76-7.62-2.64-17.13-9.25-23.52-21.12,1.21,10.5,4.87,23.94,14.87,34.08v0a2.42,2.42,0,0,1,.69,2v0c-.54,4.67.64,14.17,8.5,20.1h0a2.51,2.51,0,0,1,1,1.72v0a8.74,8.74,0,0,1-7.17,9h0l-.15,0c-9.84.84-31.91,9.8-46.7,16.24l.4,2c11.76,2.7,31.84,5.87,52.33,2.57,51.78-10.35,88.91-25.7,97.51-34.88,2.51-2.85,3.31-5.12,2.73-6.37-1.63-3.49-5.63-2.63-8.48-1.49h0c-1.72.67-3.18,1.17-4.24,1.48a2.49,2.49,0,0,1-3.13-1.81h0a2.49,2.49,0,0,1,1.72-3c4.78-1.42,18.75-7.28,28.31-14.69.89-.82.88-1.15.86-1.21-.08-.33-1.12-.59-2.06-.79l-8.19-1.28a2.48,2.48,0,0,1-1.81-1.19l0,0a2.57,2.57,0,0,1-.19-.41l0,0v0a2,2,0,0,1-.09-.35l0-.16v-.25a2.44,2.44,0,0,1,0-.27v-.07l0-.1c0-.11,0-.22.07-.33l0-.13a2.07,2.07,0,0,1,.15-.34l0-.07a2.08,2.08,0,0,1,.24-.34l0,0a2.5,2.5,0,0,1,1-.69c18.15-6.81,29-16.65,29-22.29,0-3.09,3.08-7.48,6.07-11.08-10.83.68-28.42,1.42-34.78,1.61a2.49,2.49,0,0,1-2.57-2.42h0a2.49,2.49,0,0,1,2.42-2.56c4.61-.14,11.72-.43,18.83-.77,11-16.72,10.6-51.16,9.46-54.52l.07,0a2.48,2.48,0,0,1,.79-2.55c15.86-13.44,39.54-41.11,50.24-87.44C1685.22,1166.72,1684.91,1138.09,1683.71,1127.44ZM1663.2,1151a3.13,3.13,0,0,1,0,.53c-1.76,13.61-12.1,73.52-53.29,101.89l-.12.11c-2.46,1.52-9,7.27-12.43,8.31s-5.95-3.32-1-5.89a25.93,25.93,0,0,0,4.37-2.93,1,1,0,0,0-.36-1.75l-2.54-.66a2.84,2.84,0,0,1-1.41-.87l0-.06a2.88,2.88,0,0,1-.26-.35l0-.08a2.84,2.84,0,0,1-.39-1.49,4.85,4.85,0,0,1,.11-1.25c.43-2,3.92-7.16,7.71-11.86a1,1,0,0,0-.49-1.58,13.42,13.42,0,0,1-4.9-2.52l-.13-.11c-3.58-3.66-4.79-9.27-.7-18.68,5-13.18,26.24-30,32.9-34.6l.06,0a215,215,0,0,0,27.75-28.25,1,1,0,0,1,.36-.29,2.7,2.7,0,0,1,3.78-.11,2.89,2.89,0,0,1,1.12,2.46Z" transform="translate(-1298.23 -1058.68)"/><path class="cls-4" d="M1663.2,1151a3.13,3.13,0,0,1,0,.53c-1.76,13.61-12.1,73.52-53.29,101.89a3.85,3.85,0,0,0,.35-.35l0-.06,0-.07a2.66,2.66,0,0,0,.21-.33l.12-.22a3.62,3.62,0,0,0,.13-.35l.07-.24c0-.12,0-.24,0-.36l0-.26a1.86,1.86,0,0,0,0-.33,2.66,2.66,0,0,0,0-.28l-.08-.26-.11-.33-.09-.15a3.07,3.07,0,0,0-.23-.39l-.1-.1a2.31,2.31,0,0,0-.34-.36v0l-.07,0a2.89,2.89,0,0,0-.95-.53,7.22,7.22,0,0,0-1.24-.38c29.44-19.87,43.85-63.77,48.39-87.89,2.78-3.07,5-5.72,6.51-7.51A2.88,2.88,0,0,0,1663.2,1151Z" transform="translate(-1298.23 -1058.68)"/><path class="cls-5" d="M1663.2,1151v.08a2.88,2.88,0,0,1-.65,1.6c-1.47,1.79-3.73,4.44-6.51,7.51-7.48,8.28-18.68,19.7-28.16,26.12-2.26,1.36-38.14,32-23.49,41.33l.2.11c1.61.68,4.77-.14,8-2.45,2.46-1.94,6.93,2,2.86,5.6a125.86,125.86,0,0,0-9.49,10.76c-.11.15-.25.34-.42.54l-.24.31c-2.33,3.15-2.68,3.6-1.07,4.37l1.29.56h0a13.9,13.9,0,0,0,2.13.64,7.22,7.22,0,0,1,1.24.38,2.89,2.89,0,0,1,.95.53l.07,0v0a2.31,2.31,0,0,1,.34.36l.1.1a3.07,3.07,0,0,1,.23.39l.09.15.11.33.08.26a2.66,2.66,0,0,1,0,.28,1.86,1.86,0,0,1,0,.33l0,.26c0,.12,0,.24,0,.36l-.07.24a3.62,3.62,0,0,1-.13.35l-.12.22a2.66,2.66,0,0,1-.21.33l0,.07,0,.06a3.85,3.85,0,0,1-.35.35l-.12.11c-2.46,1.52-9,7.27-12.43,8.31s-5.95-3.32-1-5.89a25.93,25.93,0,0,0,4.37-2.93,1,1,0,0,0-.36-1.75l-2.54-.66a2.84,2.84,0,0,1-1.41-.87l0-.06a2.88,2.88,0,0,1-.26-.35l0-.08a2.84,2.84,0,0,1-.39-1.49,4.85,4.85,0,0,1,.11-1.25c.43-2,3.92-7.16,7.71-11.86a1,1,0,0,0-.49-1.58,13.42,13.42,0,0,1-4.9-2.52l-.13-.11c-3.58-3.66-4.79-9.27-.7-18.68,5-13.18,26.24-30,32.9-34.6l.06,0a215,215,0,0,0,27.75-28.25,1,1,0,0,1,.36-.29,2.7,2.7,0,0,1,3.78-.11A2.89,2.89,0,0,1,1663.2,1151Z" transform="translate(-1298.23 -1058.68)"/><path class="cls-6" d="M1627.88,1186.27c9.48-6.42,20.68-17.84,28.16-26.12-4.54,24.12-19,68-48.39,87.89a13.9,13.9,0,0,1-2.13-.64h0l-1.29-.56c-1.61-.77-1.26-1.22,1.07-4.37l.24-.31c.17-.2.31-.39.42-.54a125.86,125.86,0,0,1,9.49-10.76c4.07-3.58-.4-7.54-2.86-5.6-3.22,2.31-6.38,3.13-8,2.45l-.2-.11C1589.74,1218.29,1625.62,1187.63,1627.88,1186.27Z" transform="translate(-1298.23 -1058.68)"/><path class="cls-7" d="M1615.71,1420.93a10.61,10.61,0,1,1-10.6,10.6A10.61,10.61,0,0,1,1615.71,1420.93Zm8,10.6a8,8,0,1,0-4.56,7.27A8,8,0,0,0,1623.76,1431.53Z" transform="translate(-1298.23 -1058.68)"/><path class="cls-7" d="M1620,1436.24c.17,0,.34,0,.34.38a2.2,2.2,0,0,1-1.36,1.49c-1.1,0-2.16-1.66-2.67-2.55a2.53,2.53,0,0,0-1.87-1.52v2.88c0,.68-.13.89-.68.89s-1.61-.3-1.61-1v-7.2c0-.17,0-.39,0-.51a.55.55,0,0,1,.39-.51,1.45,1.45,0,0,1,.54-.09c.81,0,1.4.34,1.4,1v2.33c1.7-.17,3.82-1.14,3.82-2.71,0-.81-.72-1.87-2.84-1.87a5.85,5.85,0,0,0-3.06.68.85.85,0,0,1-.57.63,1.07,1.07,0,0,1-.32.05,1.44,1.44,0,0,1-1.27-1.27,1.35,1.35,0,0,1,.55-1,8.32,8.32,0,0,1,4.63-1.42c3.22,0,5.34,1.66,5.34,4,0,2-1.61,3.56-3.9,4.32a4.82,4.82,0,0,1,1.31,1.36C1619,1436.11,1619.61,1436.24,1620,1436.24Z" transform="translate(-1298.23 -1058.68)"/><path d="M1447.51,1254l-50.14,23.68a4.45,4.45,0,0,1-3.8-8l50.14-23.67a4.45,4.45,0,0,1,3.8,8Z" transform="translate(-1298.23 -1058.68)"/><path d="M1426.16,1274.2a27,27,0,1,0,27,27A27,27,0,0,0,1426.16,1274.2Zm.24,42.86a15.88,15.88,0,1,1,15.88-15.88A15.88,15.88,0,0,1,1426.4,1317.06Z" transform="translate(-1298.23 -1058.68)"/><circle class="cls-8" cx="128.17" cy="242.5" r="15.88"/><path d="M1420.17,1405.6l-.05.08a2.59,2.59,0,0,1-.18.21C1420,1405.8,1420.09,1405.7,1420.17,1405.6Z" transform="translate(-1298.23 -1058.68)"/><path d="M1393.33,1430.66l.07,0a3.51,3.51,0,0,1-.4.27c-.32.22-.64.43-1,.63q.32-.19.63-.42Z" transform="translate(-1298.23 -1058.68)"/><path d="M1393.54,1430.52a.55.55,0,0,1,.14-.09.1.1,0,0,0,0,0l-.2.14h0A.71.71,0,0,1,1393.54,1430.52Z" transform="translate(-1298.23 -1058.68)"/><path d="M1420.12,1405.68c-.06.1-.16.25-.29.43s-.28.4-.48.65-.27.36-.42.56-.51.65-.82,1c-1.09,1.34-2.59,3.1-4.49,5.11-.53.58-1.1,1.17-1.71,1.79a118.54,118.54,0,0,1-15.46,13.28c-.45.32-.91.65-1.38,1s-.92.64-1.39.94l.34-.24.72-.5c.24-.16.49-.34.74-.53l.77-.55c1-.75,2.15-1.58,3.31-2.48l.88-.69c2.06-1.63,4.27-3.49,6.54-5.57l1-.91,1-.93,1-1,1-1c.62-.62,1.24-1.26,1.87-1.92a.71.71,0,0,0,.12-.13c.34-.35.67-.71,1-1.07.68-.73,1.36-1.48,2-2.24l1-1.12,1-1.18c.66-.79,1.31-1.6,2-2.43a.39.39,0,0,0,.08-.1A2.59,2.59,0,0,0,1420.12,1405.68Z" transform="translate(-1298.23 -1058.68)"/><path class="cls-9" d="M1419.86,1406c-.65.83-1.3,1.64-2,2.43l-1,1.18-1,1.12c-.67.76-1.35,1.51-2,2.24-.33.36-.66.72-1,1.07a.71.71,0,0,1-.12.13c-.63.66-1.25,1.3-1.87,1.92l-1,1-1,1-1,.93-1,.91c-2.27,2.08-4.48,3.94-6.54,5.57l-.88.69c-1.16.9-2.26,1.73-3.31,2.48l-.77.55c-.25.19-.5.37-.74.53l-.43.31-.29.19-.34.24a.1.1,0,0,0,0,0l-.09,0-.13.1h0l-.07,0-.67.44q-.32.23-.63.42l-.6.39-2.31,1.43c-1.3.78-2.06,1.18-2.1,1.19l-.18.07c-.36.15-.71.29-1.06.41l-.65.22c-.31.1-.62.18-.92.26s-.46.12-.68.16a16.27,16.27,0,0,1-1.75.28l-.67,0h0l-.88,0h-.74l-.6,0c4.48-1.45,11.33-5.86,18.19-10.9a1,1,0,0,0,1.6-.56l.17-.76C1408.58,1416.42,1417.9,1408.24,1419.86,1406Z" transform="translate(-1298.23 -1058.68)"/><path d="M1399.94,1409l-1.72.27-.14,0Z" transform="translate(-1298.23 -1058.68)"/><path d="M1402.22,1408.62l-2.28.35-1.72.27-1.25,11.4-5.09-10.42-1.82.28-.65.1-1.18.18-.62.1,9.24,13.94a.93.93,0,0,0,.21.23h0a1,1,0,0,0,1.6-.56l.17-.76h0Z" transform="translate(-1298.23 -1058.68)"/><path class="cls-8" d="M1398.22,1409.24l-1.25,11.4-5.09-10.42,3-.47,1.27-.2,1.91-.29Z" transform="translate(-1298.23 -1058.68)"/><polygon class="cls-8" points="96.67 351.07 93.65 351.54 93.65 351.53 96.67 351.07"/><path d="M1387,1434.53s.8-.41,2.1-1.19c-3.54,2.67-8.4,2.82-10.25,2.61a16.51,16.51,0,0,0,8-1.35Z" transform="translate(-1298.23 -1058.68)"/><path d="M1384.32,1424.18a14.39,14.39,0,0,0-4.18,2,2.42,2.42,0,0,1-3-.14l-.06,0a2.46,2.46,0,0,1,.2-3.91,19.27,19.27,0,0,1,5.66-2.71,2.44,2.44,0,0,1,3,2l0,.1A2.45,2.45,0,0,1,1384.32,1424.18Z" transform="translate(-1298.23 -1058.68)"/><path class="cls-10" d="M1318.14,1331a2.39,2.39,0,0,1-1.24,3,15.4,15.4,0,0,0-7.52,8,2.44,2.44,0,0,1-2.72,1.42l-.2,0a2.4,2.4,0,0,1-1.73-3.29,19.82,19.82,0,0,1,10.12-10.58,2.42,2.42,0,0,1,3.24,1.44Z" transform="translate(-1298.23 -1058.68)"/></svg>